<?xml version="1.0" encoding="utf-8"?><svg viewBox="0 0 1920 1432" xmlns="http://www.w3.org/2000/svg" xmlns:xlink="http://www.w3.org/1999/xlink"><style>:root>svg{display:none}:root>svg:target{display:block}</style><svg fill="none" viewBox="0 0 1920 928" id="choice-card" xmlns="http://www.w3.org/2000/svg"><path d="M2097.45 718.077c140.87 54.537 145 162.434 129.45 209.566l-193.63-15.352H-19.998L-259.625 261.38c10.102-48.591 67.623-139.971 216.894-116.762 186.59 29.011 200.051-40.83 242.689-88.864 42.638-48.034 101.613-91.69 245.012-6.05 143.4 85.641 291.401 141.037 435.376 67.693 115.18-58.676 207.544-44.07 240.574-35.22 33.03 8.85 120.32 42.383 190.73 150.787 88.01 135.506 243.88 161.532 410.89 159.065 167.01-2.468 196.26 64.827 209.16 127.745 12.91 62.918-10.35 130.133 165.75 198.303z" fill="#1D1534"/></svg><svg fill="none" viewBox="0 0 20 20" id="github" xmlns="http://www.w3.org/2000/svg"><g clip-path="url(#bclip0_101_291)"><path d="M10 .417c-5.525 0-10 4.4-10 9.826 0 4.343 2.865 8.025 6.838 9.324.5.092.683-.212.683-.473 0-.233-.008-.851-.013-1.67-2.781.592-3.368-1.319-3.368-1.319-.455-1.134-1.112-1.437-1.112-1.437-.906-.61.07-.597.07-.597 1.004.068 1.531 1.012 1.531 1.012.892 1.503 2.341 1.069 2.913.818.09-.636.347-1.068.633-1.314-2.22-.246-4.555-1.091-4.555-4.856 0-1.073.388-1.95 1.03-2.637-.113-.248-.45-1.247.087-2.6 0 0 .837-.264 2.75 1.007.8-.218 1.65-.327 2.5-.332.85.005 1.7.114 2.5.332 1.9-1.27 2.737-1.008 2.737-1.008.538 1.354.2 2.353.1 2.601a3.77 3.77 0 011.025 2.637c0 3.775-2.337 4.606-4.562 4.847.35.295.675.898.675 1.819 0 1.315-.013 2.371-.013 2.69 0 .258.175.566.688.467 4-1.29 6.863-4.975 6.863-9.31C20 4.816 15.523.416 10 .416z" fill="#fff"/></g><defs><clipPath id="bclip0_101_291"><path fill="#fff" d="M0 0h20v20H0z"/></clipPath></defs></svg><svg fill="none" viewBox="0 0 1146 1432" id="header-background-2" xmlns="http://www.w3.org/2000/svg"><path d="M52.097 71.038c-86.013-99.58-45.036-184.236-13.796-214.116l444.585-476.457L2122.3 910.207l-444.59 476.453c-27.65 33.23-109.27 79.97-214.56 1.04-131.61-98.65-170.53-50.46-222.97-30.97-52.45 19.49-115.66 28.93-190.88-95.6-75.229-124.53-166.369-227.68-307.09-230.19-112.576-2.01-177.623-51.036-199.399-71.356-21.777-20.319-75.179-81.822-84.966-193.99-12.234-140.211-121.442-224.002-250.873-290.439C77.54 408.717 82.587 345.004 98.405 291.341c15.818-53.663 61.21-95.829-46.308-220.303z" fill="#000"/><path d="M52.097 71.038c-86.013-99.58-45.036-184.236-13.796-214.116l444.585-476.457L2122.3 910.207l-444.59 476.453c-27.65 33.23-109.27 79.97-214.56 1.04-131.61-98.65-170.53-50.46-222.97-30.97-52.45 19.49-115.66 28.93-190.88-95.6-75.229-124.53-166.369-227.68-307.09-230.19-112.576-2.01-177.623-51.036-199.399-71.356-21.777-20.319-75.179-81.822-84.966-193.99-12.234-140.211-121.442-224.002-250.873-290.439C77.54 408.717 82.587 345.004 98.405 291.341c15.818-53.663 61.21-95.829-46.308-220.303z" fill="url(#cpaint0_linear_101_73)"/><defs><linearGradient id="cpaint0_linear_101_73" x1="-765.041" y1="-411.364" x2="1226.03" y2="1193.9" gradientUnits="userSpaceOnUse"><stop stop-color="#ED374D"/><stop offset=".505" stop-color="#FA793F"/><stop offset="1" stop-color="#F7F651"/></linearGradient></defs></svg><svg fill="none" viewBox="0 0 1068 1239" id="header-background-3" xmlns="http://www.w3.org/2000/svg"><path d="M93.177-663.216c-34.144-127.077 39.573-185.486 80.7-198.805L781.431-1097.7 1592.36 992.795 984.806 1228.47c-39.351 17.9-133.172 24.48-193.654-92.38-75.603-146.072-131.619-119.6-187.316-124.86-55.698-5.26-116.724-24.25-130.303-169.101-13.578-144.852-50.783-277.378-176.406-340.842-100.498-50.771-137.749-123.205-148.521-150.973-10.771-27.768-32.11-106.375 7.861-211.636C206.431 7.102 144.534-115.846 56.88-231.963-30.775-348.08 1.48-403.257 39.062-444.699c37.583-41.442 96.796-59.671 54.115-218.517z" fill="#000"/><path d="M93.177-663.216c-34.144-127.077 39.573-185.486 80.7-198.805L781.431-1097.7 1592.36 992.795 984.806 1228.47c-39.351 17.9-133.172 24.48-193.654-92.38-75.603-146.072-131.619-119.6-187.316-124.86-55.698-5.26-116.724-24.25-130.303-169.101-13.578-144.852-50.783-277.378-176.406-340.842-100.498-50.771-137.749-123.205-148.521-150.973-10.771-27.768-32.11-106.375 7.861-211.636C206.431 7.102 144.534-115.846 56.88-231.963-30.775-348.08 1.48-403.257 39.062-444.699c37.583-41.442 96.796-59.671 54.115-218.517z" fill="url(#dpaint0_linear_101_74)"/><defs><linearGradient id="dpaint0_linear_101_74" x1="210.718" y1="-761.136" x2="885.142" y2="1749.12" gradientUnits="userSpaceOnUse"><stop stop-color="#ED374D"/><stop offset=".505" stop-color="#FA793F"/><stop offset="1" stop-color="#F7F651"/></linearGradient></defs></svg><svg fill="none" viewBox="0 0 20 20" id="instagram" xmlns="http://www.w3.org/2000/svg"><path d="M14.167 1.667H5.833a4.167 4.167 0 00-4.166 4.166v8.334a4.167 4.167 0 004.166 4.166h8.334a4.167 4.167 0 004.166-4.166V5.833a4.167 4.167 0 00-4.166-4.166z" stroke="#fff" stroke-width="2" stroke-linecap="round" stroke-linejoin="round"/><path d="M13.333 9.475a3.333 3.333 0 11-6.594.978 3.333 3.333 0 016.594-.978zM14.583 5.417h.009" stroke="#fff" stroke-width="2" stroke-linecap="round" stroke-linejoin="round"/></svg><svg fill="none" viewBox="0 0 20 20" id="reddit" xmlns="http://www.w3.org/2000/svg"><g clip-path="url(#fclip0_101_298)"><path d="M17.77 7.757c-.63 0-1.187.266-1.596.68-1.504-1.057-3.532-1.737-5.78-1.81l1.168-5.338 3.717.847c0 .923.742 1.677 1.652 1.677.927 0 1.673-.774 1.673-1.698 0-.924-.74-1.698-1.672-1.698-.65 0-1.21.397-1.489.94L11.338.435c-.207-.056-.41.094-.465.304L9.592 6.623c-2.23.095-4.237.774-5.746 1.831a2.227 2.227 0 00-1.619-.697c-2.343 0-3.11 3.19-.965 4.281-.075.338-.11.698-.11 1.057 0 3.584 3.98 6.488 8.866 6.488 4.906 0 8.885-2.904 8.885-6.488 0-.36-.037-.736-.13-1.074 2.103-1.095 1.329-4.263-1.002-4.264zM4.668 12.265c0-.94.742-1.698 1.674-1.698.91 0 1.652.752 1.652 1.698 0 .924-.741 1.678-1.652 1.678a1.672 1.672 0 01-1.674-1.678zm9.033 3.998c-1.534 1.557-5.863 1.557-7.398 0-.17-.15-.17-.415 0-.585a.4.4 0 01.556 0c1.172 1.219 5.059 1.24 6.281 0a.4.4 0 01.557 0c.172.171.172.436.004.585zm-.034-2.317c-.91 0-1.652-.753-1.652-1.676 0-.94.742-1.698 1.652-1.698.927 0 1.673.752 1.673 1.698a1.68 1.68 0 01-1.673 1.676z" fill="#fff"/></g><defs><clipPath id="fclip0_101_298"><path fill="#fff" d="M0 0h20v20H0z"/></clipPath></defs></svg><svg fill="none" viewBox="0 0 20 17" id="telegram" xmlns="http://www.w3.org/2000/svg"><path d="M7.848 10.985l-.331 4.653c.473 0 .678-.203.924-.447l2.22-2.121 4.598 3.367c.843.47 1.437.223 1.665-.776l3.018-14.143.001-.001c.268-1.247-.45-1.734-1.272-1.428L.929 6.88c-1.211.47-1.193 1.145-.206 1.451l4.536 1.411L15.795 3.15c.496-.328.946-.146.575.182l-8.522 7.653z" fill="#fff"/></svg><svg fill="none" viewBox="0 0 20 16" id="twitter" xmlns="http://www.w3.org/2000/svg"><path d="M19.167.5a9.083 9.083 0 01-2.617 1.275 3.733 3.733 0 00-6.55 2.5v.833a8.883 8.883 0 01-7.5-3.775s-3.333 7.5 4.167 10.834a9.7 9.7 0 01-5.834 1.666C8.333 18 17.5 13.833 17.5 4.25c0-.232-.023-.464-.067-.692A6.433 6.433 0 0019.167.5z" fill="#fff"/></svg></svg>